<?xml version="1.0" standalone="no"?>
<!DOCTYPE svg PUBLIC "-//W3C//DTD SVG 20010904//EN"
 "http://www.w3.org/TR/2001/REC-SVG-20010904/DTD/svg10.dtd">
<svg version="1.0" xmlns="http://www.w3.org/2000/svg"
 width="252.000000pt" height="157.000000pt" viewBox="0 0 252.000000 157.000000"
 preserveAspectRatio="xMidYMid meet">

<g transform="translate(0.000000,157.000000) scale(0.100000,-0.100000)"
fill="#000000" stroke="none">
<path d="M1250 1499 c-179 -23 -321 -146 -376 -328 -31 -102 -11 -263 42 -348
61 -96 153 -173 242 -202 40 -14 56 -30 30 -32 -7 0 -2 -5 11 -10 26 -10 125
-11 206 -2 41 5 46 8 25 13 -24 7 -24 8 15 24 133 55 219 130 272 236 63 126
63 262 0 394 -85 179 -270 280 -467 255z m-6 -352 c-18 -72 -31 -135 -28 -139
3 -4 36 -8 75 -8 67 0 69 -1 69 -25 l0 -24 -105 2 c-58 1 -106 6 -107 10 -1 4
16 77 38 162 38 151 47 169 80 158 8 -3 1 -46 -22 -136z m195 -36 c55 -76 47
-202 -15 -268 -19 -20 -36 -34 -39 -31 -3 3 2 27 10 54 19 63 19 177 0 240 -8
27 -15 50 -15 52 0 11 42 -23 59 -47z"/>
<path d="M22 343 l3 -118 73 -3 72 -3 0 -69 c0 -68 1 -70 25 -70 l25 0 0 190
0 190 -25 0 -25 0 0 -100 0 -100 -50 0 -49 0 -3 98 c-3 92 -4 97 -26 100 -23
3 -23 3 -20 -115z"/>
<path d="M420 395 c0 -60 -9 -80 -25 -55 -11 18 -53 10 -84 -16 -30 -25 -31
-27 -31 -118 0 -84 2 -95 23 -114 26 -24 91 -30 101 -9 5 9 7 9 12 0 3 -7 14
-13 25 -13 18 0 19 9 19 195 0 188 -1 195 -20 195 -18 0 -20 -7 -20 -65z m-10
-114 c16 -30 12 -123 -6 -149 -17 -24 -53 -29 -72 -10 -16 16 -16 150 0 166
19 19 66 15 78 -7z"/>
<path d="M1460 298 c1 -170 4 -183 47 -206 54 -29 76 10 23 40 -29 17 -30 19
-30 98 l0 80 30 0 c23 0 30 4 30 20 0 16 -7 20 -30 20 -30 0 -30 1 -30 55 0
48 -2 55 -20 55 -19 0 -20 -7 -20 -162z"/>
<path d="M1997 350 c-47 -14 -56 -36 -57 -136 0 -83 2 -92 25 -114 33 -31 97
-31 130 0 23 22 25 31 25 115 0 82 -2 94 -22 113 -28 25 -64 33 -101 22z m71
-52 c7 -7 12 -41 12 -83 0 -78 -9 -95 -50 -95 -41 0 -50 17 -50 95 0 78 9 95
50 95 14 0 31 -5 38 -12z"/>
<path d="M545 325 c-23 -22 -25 -32 -25 -109 0 -75 3 -88 24 -113 19 -22 33
-28 64 -28 51 0 91 31 68 53 -12 13 -17 12 -36 -1 -24 -17 -48 -13 -67 11 -23
28 -14 39 34 45 122 13 124 167 3 167 -30 0 -47 -6 -65 -25z m112 -41 c3 -8
-2 -25 -11 -39 -12 -19 -25 -25 -51 -25 -32 0 -35 3 -35 28 0 31 16 57 40 64
19 7 49 -9 57 -28z"/>
<path d="M720 344 c0 -4 16 -61 36 -128 56 -190 82 -191 138 -3 20 69 36 128
36 131 0 4 -10 6 -22 4 -19 -2 -26 -16 -44 -83 -12 -44 -25 -98 -29 -120 -7
-38 -9 -34 -38 83 -28 113 -32 122 -54 122 -12 0 -23 -3 -23 -6z"/>
<path d="M980 215 c0 -128 1 -135 20 -135 19 0 20 7 20 103 0 109 7 127 46
127 35 0 43 -21 46 -126 3 -94 4 -99 26 -102 22 -3 22 -2 22 102 0 98 -2 106
-26 135 -28 33 -78 42 -103 19 -11 -10 -14 -10 -18 0 -3 6 -11 12 -19 12 -11
0 -14 -25 -14 -135z"/>
<path d="M1245 325 c-23 -22 -25 -32 -25 -109 0 -75 3 -88 24 -113 30 -34 92
-39 126 -8 18 17 19 20 5 34 -12 12 -17 13 -27 3 -28 -28 -88 -8 -88 29 0 12
12 18 47 22 93 10 124 100 54 154 -28 22 -89 16 -116 -12z m103 -51 c4 -33
-19 -54 -60 -54 -25 0 -28 3 -28 34 0 66 81 84 88 20z"/>
<path d="M1738 334 c-34 -18 -51 -74 -44 -148 7 -86 32 -116 96 -116 29 0 80
39 80 61 0 4 3 14 6 23 5 12 0 16 -19 16 -18 0 -27 -7 -31 -24 -7 -29 -37 -41
-66 -26 -17 9 -20 20 -20 85 0 64 3 76 22 89 26 18 55 6 68 -29 6 -17 14 -22
29 -18 17 4 18 9 9 34 -12 35 -53 69 -82 69 -11 -1 -33 -7 -48 -16z"/>
<path d="M2180 215 l0 -135 25 0 25 0 0 103 c0 106 7 127 41 127 39 0 49 -27
49 -131 0 -92 1 -99 20 -99 19 0 20 7 20 99 0 105 10 131 50 131 40 0 50 -26
50 -131 0 -92 1 -99 20 -99 19 0 20 7 20 101 0 133 -19 168 -92 169 -26 0 -41
-6 -51 -20 l-14 -20 -18 20 c-20 22 -74 27 -93 8 -9 -9 -12 -9 -12 0 0 7 -9
12 -20 12 -19 0 -20 -7 -20 -135z"/>
<path d="M1612 117 c-9 -10 -9 -18 1 -31 17 -23 49 -11 45 18 -4 25 -30 32
-46 13z"/>
</g>
</svg>
