<?xml version="1.0" encoding="UTF-8"?>
<svg version="1.1" xmlns="http://www.w3.org/2000/svg" width="621" height="196">
<path d="M0 0 C6.76953096 5.97311555 6.76953096 5.97311555 7.58932686 10.35931206 C7.76931352 13.48294624 7.78893142 16.57218279 7.75610352 19.70092773 C7.76683647 21.48026451 7.76683647 21.48026451 7.77778625 23.29554749 C7.79177401 26.54026236 7.7833814 29.7839406 7.76369596 33.02859759 C7.74724018 36.44087257 7.75613351 39.85309807 7.76121521 43.26539612 C7.76573402 49.00445607 7.7498936 54.74318996 7.72192383 60.48217773 C7.69001002 67.08050864 7.68983458 73.67824719 7.7071386 80.27661937 C7.72312121 86.65612159 7.71618667 93.03541047 7.69920158 99.41490364 C7.69239797 102.1127103 7.69329398 104.81034249 7.70074654 107.50814629 C7.7401732 134.64120857 7.7401732 134.64120857 3.125 146.875 C2.8448555 147.62279724 2.564711 148.37059448 2.27607727 149.14105225 C-1.10957747 157.30786356 -5.97397055 164.35397496 -11.875 170.875 C-12.55175781 171.64457031 -13.22851562 172.41414062 -13.92578125 173.20703125 C-25.73140042 185.87594981 -43.44304211 194.5724666 -60.8515625 195.2109375 C-82.54133467 195.50812441 -101.17965444 191.80963115 -117.875 176.875 C-118.61105469 176.23175781 -119.34710938 175.58851563 -120.10546875 174.92578125 C-132.70255611 163.19596324 -141.8731785 146.25191288 -143.08032227 128.9284668 C-143.75138714 106.69407962 -141.37042331 86.10049485 -125.875 68.875 C-125.22015625 68.14023438 -124.5653125 67.40546875 -123.890625 66.6484375 C-111.23208714 53.22679629 -93.3483152 45.12041255 -74.88671875 44.44140625 C-72.44542588 44.41784197 -70.00382122 44.41708197 -67.5625 44.4375 C-66.2830249 44.44579834 -65.0035498 44.45409668 -63.68530273 44.46264648 C-51.32130843 44.68389608 -41.48284516 46.89122061 -30.46484375 52.52734375 C-29.82671753 52.85021362 -29.18859131 53.1730835 -28.53112793 53.5057373 C-26.97750275 54.29237376 -25.42602152 55.08324223 -23.875 55.875 C-23.89054428 55.29141724 -23.90608856 54.70783447 -23.92210388 54.10656738 C-24.07753142 48.00689846 -24.18277463 41.90779594 -24.25952148 35.80664062 C-24.29462297 33.53297052 -24.34231746 31.25945729 -24.40307617 28.98632812 C-24.48844687 25.70924107 -24.52779243 22.43425 -24.55859375 19.15625 C-24.59472275 18.14759888 -24.63085175 17.13894775 -24.66807556 16.09973145 C-24.67172097 9.47799427 -23.29339072 6.09893693 -18.67518616 1.3260498 C-13.8114125 -2.5944213 -5.57019793 -2.17964267 0 0 Z M-101.203125 91.453125 C-110.18090153 103.09098346 -112.40097074 114.49068209 -110.875 128.875 C-108.78561249 139.62228702 -102.13222549 148.70156891 -93.5625 155.3125 C-82.5811911 162.61837081 -71.86394769 164.47440725 -58.875 162.875 C-46.67394331 160.07623752 -37.0674287 152.98110608 -30.34765625 142.48046875 C-24.09690939 131.42145507 -22.88647017 119.54389043 -25.72265625 107.1796875 C-30.19557333 94.35227106 -38.52335969 85.90132023 -50.32421875 79.55859375 C-68.04349806 71.77079411 -88.51584706 77.4034548 -101.203125 91.453125 Z " fill="#8F8F8F" transform="translate(299.875,1.125)"/>
<path d="M0 0 C1.08539063 -0.01160156 2.17078125 -0.02320313 3.2890625 -0.03515625 C14.00086003 0.00319147 23.69070903 2.14043576 33.1875 7.125 C33.86530518 7.47208008 34.54311035 7.81916016 35.24145508 8.17675781 C40.64823359 11.02154517 45.38097865 14.37502275 50 18.375 C50.80308594 18.98214844 51.60617187 19.58929688 52.43359375 20.21484375 C66.46495565 32.02510726 73.83323364 50.7088417 75.8125 68.5 C77.05385112 90.55379123 70.35551375 110.70510207 55.8203125 127.453125 C43.1311057 140.99185587 25.23418712 150.1119811 6.5625 150.7734375 C4.37500007 150.78126865 2.187389 150.77338064 0 150.75 C-1.08539063 150.76160156 -2.17078125 150.77320313 -3.2890625 150.78515625 C-14.00086003 150.74680853 -23.69070903 148.60956424 -33.1875 143.625 C-34.20420776 143.10437988 -34.20420776 143.10437988 -35.24145508 142.57324219 C-40.64823359 139.72845483 -45.38097865 136.37497725 -50 132.375 C-50.80308594 131.76785156 -51.60617187 131.16070312 -52.43359375 130.53515625 C-65.28455004 119.71844571 -73.8149764 101.75262235 -75.28393555 85.16967773 C-75.39979432 81.8991994 -75.40997594 78.6471932 -75.375 75.375 C-75.38660156 74.28960937 -75.39820313 73.20421875 -75.41015625 72.0859375 C-75.37180853 61.37413997 -73.23456424 51.68429097 -68.25 42.1875 C-67.90291992 41.50969482 -67.55583984 40.83188965 -67.19824219 40.13354492 C-64.35345483 34.72676641 -60.99997725 29.99402135 -57 25.375 C-56.39285156 24.57191406 -55.78570312 23.76882812 -55.16015625 22.94140625 C-41.66647232 6.91003131 -20.34138231 -0.2174257 0 0 Z M-33.328125 46.953125 C-42.30590153 58.59098346 -44.52597074 69.99068209 -43 84.375 C-40.91061249 95.12228702 -34.25722549 104.20156891 -25.6875 110.8125 C-14.7061911 118.11837081 -3.98894769 119.97440725 9 118.375 C21.20105669 115.57623752 30.8075713 108.48110608 37.52734375 97.98046875 C43.77809061 86.92145507 44.98852983 75.04389043 42.15234375 62.6796875 C37.67942667 49.85227106 29.35164031 41.40132023 17.55078125 35.05859375 C-0.16849806 27.27079411 -20.64084706 32.9034548 -33.328125 46.953125 Z " fill="#8F8F8F" transform="translate(389,45.625)"/>
<path d="M0 0 C1.08539063 -0.01160156 2.17078125 -0.02320313 3.2890625 -0.03515625 C14.00086003 0.00319147 23.69070903 2.14043576 33.1875 7.125 C33.86530518 7.47208008 34.54311035 7.81916016 35.24145508 8.17675781 C40.64823359 11.02154517 45.38097865 14.37502275 50 18.375 C50.80308594 18.98214844 51.60617188 19.58929688 52.43359375 20.21484375 C66.46495565 32.02510726 73.83323364 50.7088417 75.8125 68.5 C77.05385112 90.55379123 70.35551375 110.70510207 55.8203125 127.453125 C43.1311057 140.99185587 25.23418712 150.1119811 6.5625 150.7734375 C4.37500007 150.78126865 2.187389 150.77338064 0 150.75 C-1.08539063 150.76160156 -2.17078125 150.77320313 -3.2890625 150.78515625 C-14.00086003 150.74680853 -23.69070903 148.60956424 -33.1875 143.625 C-34.20420776 143.10437988 -34.20420776 143.10437988 -35.24145508 142.57324219 C-40.64823359 139.72845483 -45.38097865 136.37497725 -50 132.375 C-50.80308594 131.76785156 -51.60617188 131.16070312 -52.43359375 130.53515625 C-65.28455004 119.71844571 -73.8149764 101.75262235 -75.28393555 85.16967773 C-75.39979432 81.8991994 -75.40997594 78.6471932 -75.375 75.375 C-75.38660156 74.28960937 -75.39820312 73.20421875 -75.41015625 72.0859375 C-75.37180853 61.37413997 -73.23456424 51.68429097 -68.25 42.1875 C-67.90291992 41.50969482 -67.55583984 40.83188965 -67.19824219 40.13354492 C-64.35345483 34.72676641 -60.99997725 29.99402135 -57 25.375 C-56.39285156 24.57191406 -55.78570312 23.76882812 -55.16015625 22.94140625 C-41.66647232 6.91003131 -20.34138231 -0.2174257 0 0 Z M-33.328125 46.953125 C-42.30590153 58.59098346 -44.52597074 69.99068209 -43 84.375 C-40.91061249 95.12228702 -34.25722549 104.20156891 -25.6875 110.8125 C-14.7061911 118.11837081 -3.98894769 119.97440725 9 118.375 C21.20105669 115.57623752 30.8075713 108.48110608 37.52734375 97.98046875 C43.77809061 86.92145507 44.98852983 75.04389043 42.15234375 62.6796875 C37.67942667 49.85227106 29.35164031 41.40132023 17.55078125 35.05859375 C-0.16849806 27.27079411 -20.64084706 32.9034548 -33.328125 46.953125 Z " fill="#714B67" transform="translate(75,45.625)"/>
<path d="M0 0 C1.08539062 -0.01160156 2.17078125 -0.02320313 3.2890625 -0.03515625 C14.00086003 0.00319147 23.69070903 2.14043576 33.1875 7.125 C33.86530518 7.47208008 34.54311035 7.81916016 35.24145508 8.17675781 C40.64823359 11.02154517 45.38097865 14.37502275 50 18.375 C50.80308594 18.98214844 51.60617187 19.58929688 52.43359375 20.21484375 C65.28455004 31.03155429 73.8149764 48.99737765 75.28393555 65.58032227 C75.39979432 68.8508006 75.40997594 72.1028068 75.375 75.375 C75.38660156 76.46039063 75.39820313 77.54578125 75.41015625 78.6640625 C75.37180853 89.37586003 73.23456424 99.06570903 68.25 108.5625 C67.90291992 109.24030518 67.55583984 109.91811035 67.19824219 110.61645508 C64.35345483 116.02323359 60.99997725 120.75597865 57 125.375 C56.08927734 126.57962891 56.08927734 126.57962891 55.16015625 127.80859375 C44.34344571 140.65955004 26.37762235 149.1899764 9.79467773 150.65893555 C6.5241994 150.77479432 3.2721932 150.78497594 0 150.75 C-1.08539062 150.76160156 -2.17078125 150.77320313 -3.2890625 150.78515625 C-14.00086003 150.74680853 -23.69070903 148.60956424 -33.1875 143.625 C-34.20420776 143.10437988 -34.20420776 143.10437988 -35.24145508 142.57324219 C-40.64823359 139.72845483 -45.38097865 136.37497725 -50 132.375 C-50.80308594 131.76785156 -51.60617187 131.16070312 -52.43359375 130.53515625 C-65.28455004 119.71844571 -73.8149764 101.75262235 -75.28393555 85.16967773 C-75.39979432 81.8991994 -75.40997594 78.6471932 -75.375 75.375 C-75.38660156 74.28960937 -75.39820313 73.20421875 -75.41015625 72.0859375 C-75.37180853 61.37413997 -73.23456424 51.68429097 -68.25 42.1875 C-67.90291992 41.50969482 -67.55583984 40.83188965 -67.19824219 40.13354492 C-64.35345483 34.72676641 -60.99997725 29.99402135 -57 25.375 C-56.39285156 24.57191406 -55.78570312 23.76882812 -55.16015625 22.94140625 C-41.66647232 6.91003131 -20.34138231 -0.2174257 0 0 Z M-33.328125 46.953125 C-42.30590153 58.59098346 -44.52597074 69.99068209 -43 84.375 C-40.91061249 95.12228702 -34.25722549 104.20156891 -25.6875 110.8125 C-14.7061911 118.11837081 -3.98894769 119.97440725 9 118.375 C21.20105669 115.57623752 30.8075713 108.48110608 37.52734375 97.98046875 C43.77809061 86.92145507 44.98852983 75.04389043 42.15234375 62.6796875 C37.67942667 49.85227106 29.35164031 41.40132023 17.55078125 35.05859375 C-0.16849806 27.27079411 -20.64084706 32.9034548 -33.328125 46.953125 Z " fill="#8F8F8F" transform="translate(546,45.625)"/>
</svg>
